<?xml version="1.0" encoding="UTF-8"?>
<svg xmlns="http://www.w3.org/2000/svg" xmlns:xlink="http://www.w3.org/1999/xlink" width="120px" height="107px" viewBox="0 0 119 107" version="1.1">
<g id="surface1">
<path style=" stroke:none;fill-rule:nonzero;fill:rgb(0%,84.705882%,100%);fill-opacity:1;" d="M 97.839844 34.644531 C 96.574219 34.207031 95.296875 33.800781 94.007812 33.425781 C 94.226562 32.535156 94.421875 31.652344 94.601562 30.789062 C 97.5 16.578125 95.605469 5.128906 89.128906 1.359375 C 82.921875 -2.253906 72.769531 1.515625 62.519531 10.523438 C 61.507812 11.414062 60.519531 12.328125 59.554688 13.269531 C 58.910156 12.644531 58.25 12.03125 57.582031 11.429688 C 46.839844 1.796875 36.066406 -2.261719 29.601562 1.515625 C 23.398438 5.140625 21.5625 15.90625 24.171875 29.371094 C 24.433594 30.707031 24.726562 32.035156 25.050781 33.351562 C 23.527344 33.789062 22.054688 34.253906 20.648438 34.75 C 8.050781 39.183594 0.00390625 46.136719 0.00390625 53.34375 C 0.00390625 60.789062 8.640625 68.257812 21.761719 72.785156 C 22.828125 73.152344 23.898438 73.492188 24.980469 73.800781 C 24.628906 75.222656 24.316406 76.652344 24.046875 78.089844 C 21.558594 91.324219 23.5 101.832031 29.6875 105.433594 C 36.074219 109.152344 46.796875 105.332031 57.238281 96.117188 C 58.082031 95.367188 58.910156 94.597656 59.71875 93.804688 C 60.765625 94.824219 61.835938 95.8125 62.9375 96.769531 C 73.050781 105.554688 83.035156 109.101562 89.214844 105.492188 C 95.597656 101.761719 97.671875 90.472656 94.980469 76.738281 C 94.765625 75.664062 94.53125 74.59375 94.265625 73.527344 C 95.019531 73.300781 95.757812 73.070312 96.480469 72.828125 C 110.121094 68.265625 118.996094 60.890625 118.996094 53.34375 C 118.996094 46.109375 110.691406 39.113281 97.839844 34.644531 Z M 94.878906 67.957031 C 94.230469 68.175781 93.5625 68.386719 92.882812 68.589844 C 91.375 63.777344 89.34375 58.65625 86.855469 53.367188 C 89.230469 48.207031 91.183594 43.152344 92.648438 38.371094 C 93.863281 38.726562 95.046875 39.101562 96.183594 39.496094 C 107.195312 43.324219 113.914062 48.984375 113.914062 53.34375 C 113.914062 57.988281 106.660156 64.015625 94.878906 67.957031 Z M 89.992188 77.734375 C 91.183594 83.808594 91.355469 89.300781 90.566406 93.589844 C 89.855469 97.449219 88.429688 100.019531 86.667969 101.050781 C 82.917969 103.242188 74.898438 100.394531 66.25 92.878906 C 65.230469 91.988281 64.230469 91.070312 63.257812 90.125 C 66.613281 86.421875 69.964844 82.117188 73.234375 77.335938 C 78.984375 76.824219 84.421875 75.980469 89.347656 74.828125 C 89.585938 75.792969 89.800781 76.761719 89.992188 77.734375 Z M 40.570312 100.671875 C 36.90625 101.976562 33.988281 102.015625 32.226562 100.988281 C 28.472656 98.804688 26.914062 90.367188 29.039062 79.046875 C 29.292969 77.710938 29.582031 76.378906 29.910156 75.058594 C 34.78125 76.148438 40.179688 76.929688 45.945312 77.402344 C 49.238281 82.082031 52.683594 86.378906 56.160156 90.144531 C 55.421875 90.867188 54.664062 91.570312 53.890625 92.253906 C 49.273438 96.328125 44.648438 99.21875 40.570312 100.671875 Z M 23.40625 67.929688 C 17.605469 65.925781 12.8125 63.324219 9.53125 60.484375 C 6.578125 57.933594 5.089844 55.398438 5.089844 53.34375 C 5.089844 48.96875 11.546875 43.390625 22.320312 39.597656 C 23.628906 39.136719 24.996094 38.703125 26.417969 38.296875 C 27.90625 43.1875 29.859375 48.296875 32.21875 53.46875 C 29.828125 58.714844 27.847656 63.910156 26.34375 68.859375 C 25.359375 68.574219 24.378906 68.261719 23.40625 67.929688 Z M 29.160156 28.386719 C 26.925781 16.847656 28.410156 8.144531 32.148438 5.960938 C 36.128906 3.632812 44.929688 6.949219 54.207031 15.269531 C 54.8125 15.8125 55.410156 16.367188 55.992188 16.929688 C 52.535156 20.679688 49.121094 24.945312 45.859375 29.597656 C 40.261719 30.121094 34.90625 30.960938 29.980469 32.089844 C 29.675781 30.863281 29.402344 29.628906 29.160156 28.386719 Z M 80.488281 41.183594 C 79.324219 39.15625 78.117188 37.152344 76.871094 35.175781 C 80.667969 35.660156 84.304688 36.304688 87.71875 37.089844 C 86.695312 40.410156 85.417969 43.878906 83.910156 47.433594 C 82.8125 45.328125 81.671875 43.242188 80.488281 41.183594 Z M 59.558594 20.597656 C 61.902344 23.164062 64.25 26.027344 66.558594 29.132812 C 61.875 28.910156 57.179688 28.910156 52.496094 29.132812 C 54.808594 26.054688 57.175781 23.195312 59.558594 20.597656 Z M 38.492188 41.21875 C 37.324219 43.261719 36.203125 45.335938 35.132812 47.429688 C 33.652344 43.886719 32.386719 40.402344 31.351562 37.035156 C 34.746094 36.269531 38.367188 35.640625 42.140625 35.164062 C 40.875 37.152344 39.660156 39.171875 38.492188 41.21875 Z M 42.246094 71.886719 C 38.351562 71.449219 34.675781 70.855469 31.28125 70.109375 C 32.332031 66.683594 33.625 63.121094 35.140625 59.5 C 36.214844 61.601562 37.339844 63.671875 38.511719 65.71875 C 39.71875 67.820312 40.964844 69.878906 42.246094 71.886719 Z M 59.699219 86.449219 C 57.289062 83.824219 54.886719 80.921875 52.539062 77.800781 C 54.816406 77.890625 57.140625 77.9375 59.5 77.9375 C 61.925781 77.9375 64.324219 77.882812 66.683594 77.773438 C 64.367188 80.953125 62.027344 83.863281 59.699219 86.449219 Z M 83.960938 59.316406 C 85.550781 62.976562 86.890625 66.519531 87.953125 69.886719 C 84.503906 70.679688 80.78125 71.320312 76.855469 71.796875 C 78.113281 69.78125 79.332031 67.746094 80.507812 65.683594 C 81.707031 63.585938 82.855469 61.464844 83.960938 59.316406 Z M 76.105469 63.117188 C 74.304688 66.28125 72.398438 69.382812 70.398438 72.417969 C 66.769531 72.675781 63.136719 72.804688 59.5 72.804688 C 55.796875 72.804688 52.195312 72.6875 48.726562 72.460938 C 46.671875 69.429688 44.730469 66.324219 42.910156 63.148438 C 41.097656 59.984375 39.40625 56.757812 37.835938 53.464844 C 39.402344 50.175781 41.089844 46.945312 42.894531 43.78125 C 44.703125 40.617188 46.625 37.523438 48.664062 34.507812 C 52.203125 34.238281 55.832031 34.097656 59.5 34.097656 C 63.183594 34.097656 66.816406 34.238281 70.355469 34.511719 C 72.375 37.523438 74.285156 40.605469 76.089844 43.753906 C 77.902344 46.910156 79.613281 50.125 81.21875 53.394531 C 79.628906 56.695312 77.921875 59.941406 76.105469 63.117188 Z M 86.589844 5.804688 C 90.574219 8.125 92.125 17.484375 89.621094 29.753906 C 89.460938 30.535156 89.28125 31.332031 89.085938 32.140625 C 84.148438 30.992188 78.789062 30.136719 73.175781 29.601562 C 69.90625 24.902344 66.519531 20.628906 63.117188 16.929688 C 64.011719 16.0625 64.921875 15.214844 65.855469 14.394531 C 74.640625 6.675781 82.851562 3.628906 86.589844 5.804688 Z M 59.5 42.617188 C 65.367188 42.617188 70.125 47.417969 70.125 53.34375 C 70.125 59.269531 65.367188 64.074219 59.5 64.074219 C 53.632812 64.074219 48.875 59.269531 48.875 53.34375 C 48.875 47.417969 53.632812 42.617188 59.5 42.617188 Z M 59.5 42.617188 "/>
</g>
</svg>
